# xmcd
#
# Track frame offsets:
#	150
#	40718
#	78138
#	110470
#	149426
#	179044
#	205643
#	228171
#	241309
#	257654
#	287086
#	303768
#
# Disc length: 4410 seconds
#
# Revision: 1
# Processed by: cddbd v1.5.2PL0 Copyright (c) Steve Scherf et al.
# Submitted via: audiograbber 1.83.01
#
DISCID=9a11380c
DTITLE=Grateful Dead - 82-08-10 Fieldhouse, University of Iowa, Iowa City, IA
DYEAR=1900
DGENRE=
TTITLE0=Feel Like A Stranger
TTITLE1=Friend Of The Devil
TTITLE2=Minglewood Blues
TTITLE3=Tennessee Jed
TTITLE4=Cassidy
TTITLE5=It Must Have Been The Roses
TTITLE6="Technical Difficulties"
TTITLE7=On The Road Again
TTITLE8=Beat It On Down The Line
TTITLE9=Stagger Lee
TTITLE10=I Need A Miracle
TTITLE11=Bertha
EXTD=
EXTT0=
EXTT1=
EXTT2=
EXTT3=
EXTT4=
EXTT5=
EXTT6=
EXTT7=
EXTT8=
EXTT9=
EXTT10=
EXTT11=
PLAYORDER=
